<svg width="13" height="13" viewBox="0 0 13 13" fill="none" xmlns="http://www.w3.org/2000/svg">
<path d="M4.57031 9.84232C2.0998 8.41597 0.86454 7.70279 0.786669 6.64713C0.779444 6.54918 0.779444 6.45083 0.786669 6.35287C0.86454 5.29721 2.0998 4.58404 4.57031 3.15769V3.15769C7.04083 1.73133 8.27608 1.01816 9.22925 1.47855C9.31769 1.52127 9.40287 1.57044 9.48408 1.62568C10.3594 2.22095 10.3594 3.6473 10.3594 6.5V6.5C10.3594 9.35271 10.3594 10.7791 9.48408 11.3743C9.40287 11.4296 9.31769 11.4787 9.22925 11.5215C8.27608 11.9818 7.04083 11.2687 4.57031 9.84232V9.84232Z" fill="url(#paint0_linear_2337_4870)"/>
<path d="M3.15768 4.57031C4.58404 2.0998 5.29721 0.864539 6.35287 0.786668C6.45082 0.779443 6.54918 0.779443 6.64713 0.786668C7.70279 0.864539 8.41596 2.0998 9.84232 4.57031V4.57031C11.2687 7.04082 11.9818 8.27608 11.5215 9.22924C11.4787 9.31769 11.4296 9.40286 11.3743 9.48408C10.7791 10.3594 9.3527 10.3594 6.5 10.3594V10.3594C3.64729 10.3594 2.22094 10.3594 1.62568 9.48408C1.57044 9.40286 1.52126 9.31769 1.47855 9.22924C1.01815 8.27608 1.73133 7.04082 3.15768 4.57031V4.57031Z" fill="url(#paint1_linear_2337_4870)"/>
<path d="M4.5505 6.41697L4.97969 6.4581C5.25256 6.48425 5.45126 6.72647 5.42466 7.00052L5.2611 8.68578C5.21293 9.19659 5.47378 9.32449 5.84224 8.97171L8.35539 6.57945C8.66078 6.28664 8.57226 6.01488 8.15278 5.97271L7.7236 5.93157C7.45073 5.90542 7.25202 5.6632 7.27862 5.38914L7.4422 3.70392C7.49037 3.19312 7.2295 3.06518 6.86104 3.41797L4.34791 5.81026C4.04252 6.10306 4.13102 6.37479 4.5505 6.41697Z" fill="url(#paint2_linear_2337_4870)" fill-opacity="0.5" stroke="white" stroke-width="0.6" stroke-miterlimit="10" stroke-linecap="round" stroke-linejoin="round"/>
<defs>
<linearGradient id="paint0_linear_2337_4870" x1="12.9893" y1="1.51103" x2="-0.661608" y2="10.8913" gradientUnits="userSpaceOnUse">
<stop stop-color="#8C73FF"/>
<stop offset="1" stop-color="#34C1FF"/>
</linearGradient>
<linearGradient id="paint1_linear_2337_4870" x1="1.40123" y1="11.6258" x2="9.27014" y2="0.45368" gradientUnits="userSpaceOnUse">
<stop stop-color="#FF4FEF"/>
<stop offset="1" stop-color="#FFA839"/>
</linearGradient>
<linearGradient id="paint2_linear_2337_4870" x1="5.55006" y1="8.5468" x2="8.27829" y2="4.04685" gradientUnits="userSpaceOnUse">
<stop offset="0.175" stop-color="white"/>
<stop offset="1" stop-color="#999999" stop-opacity="0"/>
</linearGradient>
</defs>
</svg>
