<svg width="32"
        height="32"
        viewBox="0 0 32 32"
        fill="none"
        xmlns="http://www.w3.org/2000/svg">
    <path d="M11.25 24.2272C5.27913 20.78 2.29369 19.0563 2.02739 16.5226C1.99087 16.1752 1.99087 15.8248 2.02739 15.4774C2.29369 12.9437 5.27913 11.22 11.25 7.77276V7.77276C17.2209 4.32548 20.2063 2.60184 22.5337 3.63805C22.8529 3.78015 23.1563 3.95533 23.4389 4.16069C25.5 5.65815 25.5 9.10543 25.5 16V16C25.5 22.8946 25.5 26.3419 23.4389 27.8393C23.1563 28.0447 22.8529 28.2199 22.5337 28.362C20.2063 29.3982 17.2209 27.6745 11.25 24.2272V24.2272Z"
            fill="url(#paint0_linear_969_280)" />
    <path d="M7.77276 11.25C11.22 5.27913 12.9437 2.29369 15.4774 2.02739C15.8248 1.99087 16.1752 1.99087 16.5226 2.02739C19.0563 2.29369 20.78 5.27913 24.2272 11.25V11.25C27.6745 17.2209 29.3982 20.2063 28.362 22.5337C28.2198 22.8529 28.0447 23.1563 27.8393 23.4389C26.3419 25.5 22.8946 25.5 16 25.5V25.5C9.10543 25.5 5.65815 25.5 4.16069 23.4389C3.95532 23.1563 3.78015 22.8529 3.63804 22.5337C2.60183 20.2063 4.32547 17.2209 7.77276 11.25V11.25Z"
            fill="url(#paint1_linear_969_280)" />
    <path d="M11.2031 15.7955L12.4872 15.9185C13.0329 15.9708 13.4303 16.4553 13.3771 17.0034L12.9523 21.3802C12.8337 22.6376 13.4758 22.9524 14.3828 22.084L20.569 16.1954C21.3208 15.4747 21.1029 14.8057 20.0703 14.7019L18.7863 14.5788C18.2406 14.5265 17.8431 14.0421 17.8963 13.494L18.3212 9.11719C18.4398 7.85982 17.7976 7.5449 16.8906 8.4133L10.7045 14.302C9.95274 15.0228 10.1706 15.6916 11.2031 15.7955Z"
            fill="url(#paint2_linear_969_280)"
            fill-opacity="0.5"
            stroke="white"
            stroke-width="1.15"
            stroke-miterlimit="10"
            stroke-linecap="round"
            stroke-linejoin="round" />
    <defs>
        <linearGradient id="paint0_linear_969_280"
                x1="31.9736"
                y1="3.71946"
                x2="-1.62858"
                y2="26.8094"
                gradientUnits="userSpaceOnUse">
            <stop stop-color="#8C73FF" />
            <stop offset="1"
                    stop-color="#34C1FF" />
        </linearGradient>
        <linearGradient id="paint1_linear_969_280"
                x1="3.44918"
                y1="28.6174"
                x2="22.8188"
                y2="1.11675"
                gradientUnits="userSpaceOnUse">
            <stop stop-color="#FF4FEF" />
            <stop offset="1"
                    stop-color="#FFA839" />
        </linearGradient>
        <linearGradient id="paint2_linear_969_280"
                x1="13.6636"
                y1="21.0381"
                x2="20.3792"
                y2="9.96132"
                gradientUnits="userSpaceOnUse">
            <stop offset="0.175"
                    stop-color="white" />
            <stop offset="1"
                    stop-color="#999999"
                    stop-opacity="0" />
        </linearGradient>
    </defs>
</svg>
