<svg xmlns="http://www.w3.org/2000/svg" width="46" height="46" fill="none"><g clip-path="url(#a)"><circle cx="22.627" cy="23" r="16" fill="#1E1A1D" transform="rotate(-45 22.627 23)"/><path fill="url(#b)" d="M17.436 31.478c-5.91-3.551-8.865-5.327-9.087-7.865a5 5 0 0 1 .018-1.045c.31-2.529 3.326-4.2 9.356-7.542 6.03-3.343 9.045-5.014 11.354-3.938.317.148.617.329.896.539 2.035 1.533 1.975 4.98 1.854 11.873-.12 6.894-.18 10.34-2.267 11.802-.286.2-.593.37-.914.507-2.346.995-5.3-.78-11.21-4.331Z"/><path fill="url(#c)" d="M14.02 19.06c3.342-6.03 5.014-9.045 7.542-9.356a5 5 0 0 1 1.045-.018c2.538.222 4.314 3.177 7.865 9.087 3.55 5.91 5.326 8.864 4.33 11.21a4.997 4.997 0 0 1-.506.914c-1.461 2.087-4.908 2.147-11.802 2.267-6.893.12-10.34.18-11.873-1.854-.21-.28-.39-.58-.538-.896-1.077-2.309.594-5.324 3.937-11.354Z"/><path fill="url(#d)" fill-opacity=".5" stroke="#fff" stroke-linecap="round" stroke-linejoin="round" stroke-miterlimit="10" stroke-width="1.15" d="m17.169 23.018 1.283.163a1 1 0 0 1 .866 1.117l-.542 4.3c-.152 1.24.484 1.572 1.418.743l6.37-5.623c.774-.689.573-1.358-.461-1.494l-1.283-.163a1 1 0 0 1-.866-1.117l.542-4.3c.152-1.24-.484-1.572-1.418-.742l-6.37 5.623c-.774.688-.573 1.357.461 1.493Z"/></g><defs><linearGradient id="b" x1="38.514" x2="4.514" y1="11.335" y2="33.835" gradientUnits="userSpaceOnUse"><stop stop-color="#8C73FF"/><stop offset="1" stop-color="#34C1FF"/></linearGradient><linearGradient id="c" x1="10" x2="28.887" y1="36.5" y2="8.666" gradientUnits="userSpaceOnUse"><stop stop-color="#FF4FEF"/><stop offset="1" stop-color="#FFA839"/></linearGradient><linearGradient id="d" x1="19.5" x2="26.418" y1="28.283" y2="17.468" gradientUnits="userSpaceOnUse"><stop offset=".175" stop-color="#fff"/><stop offset="1" stop-color="#999" stop-opacity="0"/></linearGradient><clipPath id="a"><path fill="#fff" d="M0 0h32v32H0z" transform="rotate(-45 27.763 11.5)"/></clipPath></defs></svg>
