<svg xmlns="http://www.w3.org/2000/svg" width="33" height="33" fill="none"><circle cx="16.627" cy="16" r="16" fill="#1E1A1D"/><path fill="url(#a)" d="M12.25 24.6c-5.97-3.448-8.956-5.171-9.223-7.705a5 5 0 0 1 0-1.045c.267-2.534 3.252-4.257 9.223-7.705 5.97-3.447 8.956-5.17 11.284-4.134.319.142.622.317.905.522C26.5 6.031 26.5 9.478 26.5 16.373c0 6.894 0 10.341-2.061 11.839a5 5 0 0 1-.905.523c-2.328 1.036-5.313-.688-11.284-4.135Z"/><path fill="url(#b)" d="M8.773 11.623c3.447-5.971 5.17-8.957 7.704-9.223a5 5 0 0 1 1.046 0c2.533.266 4.257 3.252 7.704 9.223 3.447 5.97 5.171 8.956 4.135 11.283-.142.32-.317.623-.523.905-1.497 2.062-4.944 2.062-11.839 2.062-6.895 0-10.342 0-11.84-2.062a5.001 5.001 0 0 1-.522-.905c-1.036-2.327.687-5.313 4.135-11.283Z"/><path fill="url(#c)" fill-opacity=".5" stroke="#fff" stroke-linecap="round" stroke-linejoin="round" stroke-miterlimit="10" stroke-width="1.15" d="m12.169 16.018 1.283.163a1 1 0 0 1 .866 1.117l-.542 4.3c-.152 1.24.484 1.572 1.418.743l6.37-5.623c.774-.689.573-1.357-.461-1.494l-1.283-.163a1 1 0 0 1-.866-1.117l.542-4.3c.152-1.24-.484-1.572-1.418-.742l-6.37 5.623c-.774.688-.573 1.357.461 1.493Z"/><defs><linearGradient id="a" x1="32.974" x2="-.629" y1="4.092" y2="27.182" gradientUnits="userSpaceOnUse"><stop stop-color="#8C73FF"/><stop offset="1" stop-color="#34C1FF"/></linearGradient><linearGradient id="b" x1="4.449" x2="23.819" y1="28.99" y2="1.489" gradientUnits="userSpaceOnUse"><stop stop-color="#FF4FEF"/><stop offset="1" stop-color="#FFA839"/></linearGradient><linearGradient id="c" x1="14.5" x2="21.418" y1="21.283" y2="10.468" gradientUnits="userSpaceOnUse"><stop offset=".175" stop-color="#fff"/><stop offset="1" stop-color="#999" stop-opacity="0"/></linearGradient></defs></svg>